<svg xmlns="http://www.w3.org/2000/svg" xmlns:xlink="http://www.w3.org/1999/xlink" width="7" height="7" viewBox="0 0 7 7">
  <defs>
    <clipPath id="clip-path">
      <rect id="矩形_899" data-name="矩形 899" width="7" height="7" transform="translate(20 33.027)" fill="#fff" opacity="0"/>
    </clipPath>
  </defs>
  <g id="世纪之光icon" transform="translate(-20 -33.027)" clip-path="url(#clip-path)">
    <path id="路径_1624" data-name="路径 1624" d="M195.482,64.16l-.207.189h.413Zm3.437,6.489h-.512V67.463a.416.416,0,0,0-.416-.416h-1.373l.025.277.062,3.324h-.1v0l-.063-3.344-.025-.277-.04-.432-.114-1.56-.627-.638h-.514l-.627.638-.179,2.268-.063,3.347h-.436v.393h5.393A.394.394,0,0,0,198.919,70.649Zm-2-2.931h1.194a.069.069,0,1,1,0,.137h-1.194a.069.069,0,1,1,0-.137Zm0,.351h1.194a.069.069,0,1,1,0,.137h-1.194a.069.069,0,1,1,0-.137Zm0,.351h1.194a.069.069,0,1,1,0,.137h-1.194a.069.069,0,1,1,0-.137Zm-.846-2.044h-1.186a.088.088,0,0,1-.09-.076.085.085,0,0,1,.085-.094h1.186a.088.088,0,0,1,.09.076.085.085,0,0,1-.085.094Zm0-.536h-1.186a.088.088,0,0,1-.09-.076.085.085,0,0,1,.085-.094h1.186a.088.088,0,0,1,.09.076.085.085,0,0,1-.085.094Zm0-.476h-1.186a.088.088,0,0,1-.09-.076.085.085,0,0,1,.085-.094h1.186a.088.088,0,0,1,.09.076.085.085,0,0,1-.085.094Z" transform="translate(-172.92 -31.133)" fill="#16e8e8"/>
  </g>
</svg>
