<svg xmlns="http://www.w3.org/2000/svg" xmlns:xlink="http://www.w3.org/1999/xlink" width="7" height="7" viewBox="0 0 7 7">
  <defs>
    <clipPath id="clip-path">
      <rect id="矩形_903" data-name="矩形 903" width="7" height="7" transform="translate(20 33.027)" fill="#fff" opacity="0"/>
    </clipPath>
  </defs>
  <g id="仙门烟柳icon" transform="translate(-20 -33.027)" clip-path="url(#clip-path)">
    <g id="组_1878" data-name="组 1878" transform="translate(-9.579 -38.794)">
      <path id="路径_1589" data-name="路径 1589" d="M59.974,109.736a2.938,2.938,0,0,0-.683.352c-.315.214-.58.5-.908.7a2.508,2.508,0,0,1-1.31.235c-.4-.01-.791-.151-1.193-.161a2.4,2.4,0,0,1,1.739-1.323,4.655,4.655,0,0,1,1.364.037C59.314,109.619,59.646,109.673,59.974,109.736Zm.63-2.982a5.511,5.511,0,0,1-1.38,1.565,2.651,2.651,0,0,1-.938.5,6.813,6.813,0,0,1-1.169.154,1.734,1.734,0,0,1,.576-.985,3.588,3.588,0,0,1,.985-.754,4.1,4.1,0,0,1,.925-.325C59.931,106.845,60.269,106.8,60.6,106.755Zm-3.461-.771a10.924,10.924,0,0,1-.231,1.434,5.847,5.847,0,0,1-.432,1.38,5.157,5.157,0,0,1-1.742,1.813,3.909,3.909,0,0,1,.469-2.633A4.951,4.951,0,0,1,57.143,105.984Z" transform="translate(-24.579 -33.167)" fill="#00ffd4"/>
      <path id="路径_1590" data-name="路径 1590" d="M36.143,73.407a.094.094,0,0,1,.1.1.076.076,0,0,1-.01.037A5.45,5.45,0,0,1,34.7,75.32a2.753,2.753,0,0,1-.978.506,8.444,8.444,0,0,1-1.266.161.068.068,0,0,1-.054-.013.078.078,0,0,1-.04-.07,1.6,1.6,0,0,1,.482-1.039,4.119,4.119,0,0,1,1.039-.871A6.343,6.343,0,0,1,36.143,73.407Zm-1.5,1.749a5.46,5.46,0,0,0,1.38-1.565c-.335.044-.673.087-1.005.161a4.157,4.157,0,0,0-.925.325,3.588,3.588,0,0,0-.985.754,1.752,1.752,0,0,0-.576.985,6.813,6.813,0,0,0,1.169-.154A2.755,2.755,0,0,0,34.645,75.156Zm1.149,1.323c.087.017.07.131,0,.157a.112.112,0,0,1-.04.017,2.393,2.393,0,0,0-1.153.556,4.128,4.128,0,0,1-.9.647,3.036,3.036,0,0,1-1.213.168c-.446-.01-.874-.181-1.32-.161a.081.081,0,0,1-.064-.027.067.067,0,0,1-.017-.08,2.568,2.568,0,0,1,1.789-1.528,4.261,4.261,0,0,1,1.414-.007C34.8,76.288,35.3,76.375,35.794,76.479Zm-1.082.446a2.7,2.7,0,0,1,.683-.352c-.328-.064-.66-.121-.992-.164a4.771,4.771,0,0,0-1.364-.037A2.392,2.392,0,0,0,31.3,77.7c.4.01.787.154,1.193.161a2.541,2.541,0,0,0,1.31-.235C34.132,77.424,34.4,77.139,34.712,76.925Zm-2-4.3a.068.068,0,0,1,.033.07,12.054,12.054,0,0,1-.255,1.625,5.949,5.949,0,0,1-.442,1.39,5.459,5.459,0,0,1-1.9,1.94.074.074,0,0,1-.074.007.07.07,0,0,1-.047-.057,4.044,4.044,0,0,1,.436-2.831,5.117,5.117,0,0,1,2.148-2.168.087.087,0,0,1,.1.023Zm-.375,1.622a12.172,12.172,0,0,0,.231-1.434,4.964,4.964,0,0,0-1.933,1.993,3.913,3.913,0,0,0-.469,2.633A5.186,5.186,0,0,0,31.9,75.632,6,6,0,0,0,32.333,74.251Z" transform="translate(0 0)" fill="#00ffd4"/>
    </g>
  </g>
</svg>
