<svg xmlns="http://www.w3.org/2000/svg" xmlns:xlink="http://www.w3.org/1999/xlink" width="7" height="7" viewBox="0 0 7 7">
  <defs>
    <clipPath id="clip-path">
      <rect id="矩形_904" data-name="矩形 904" width="7" height="7" transform="translate(20 33.027)" fill="#fff" opacity="0"/>
    </clipPath>
  </defs>
  <g id="会昌竞渡icon" transform="translate(-20 -33.027)" clip-path="url(#clip-path)">
    <g id="组_1874" data-name="组 1874" transform="translate(-12.723 -39.969)">
      <path id="路径_1585" data-name="路径 1585" d="M35.775,77.022c-.044-.882.832-1.346,1.747-1.489a.048.048,0,0,1,.055.047v2.675a.139.139,0,0,0,.085.128l1.248.52a.138.138,0,0,0,.191-.128v-3.33a.047.047,0,0,1,.032-.045.9.9,0,0,1,.336-.027,1.188,1.188,0,0,0-.325-.073.048.048,0,0,1-.043-.048V73.469a.138.138,0,0,0-.16-.136l-1.248.2a.138.138,0,0,0-.116.136v1.421a.048.048,0,0,1-.055.047c-1.128-.184-3.251.18-3.957,1.164a3.866,3.866,0,0,0-.336,3.134.047.047,0,0,0,.046.036c3.152,0,5.8.006,6.194,0C38.658,79.5,35.83,78.127,35.775,77.022Z" transform="translate(0 0)" fill="#00ffd4"/>
      <path id="路径_1586" data-name="路径 1586" d="M511.439,123.9l-.529.108a.138.138,0,0,0-.11.135v.668a.138.138,0,0,0,.126.137l.529.049a.138.138,0,0,0,.151-.137v-.825A.138.138,0,0,0,511.439,123.9Zm.166,4.159v-1.685a.138.138,0,0,0-.2-.125l-.529.249a.138.138,0,0,0-.079.125v1.048a.136.136,0,0,0,.057.111l.529.388A.138.138,0,0,0,511.605,128.057Z" transform="translate(-474.454 -50.216)" fill="#00ffd4"/>
    </g>
  </g>
</svg>
