<svg xmlns="http://www.w3.org/2000/svg" xmlns:xlink="http://www.w3.org/1999/xlink" width="7" height="7" viewBox="0 0 7 7">
  <defs>
    <clipPath id="clip-path">
      <rect id="矩形_905" data-name="矩形 905" width="7" height="7" transform="translate(20 33.027)" fill="#fff" opacity="0"/>
    </clipPath>
  </defs>
  <g id="南塘印象icon" transform="translate(-20 -33.027)" clip-path="url(#clip-path)">
    <path id="联合_24" data-name="联合 24" d="M-3979.6,1172.468a7.371,7.371,0,0,0,1.732-.194c1.8-.314,2.563-.853,3.186-1.863s0-1.981-1.588-1.873-2.667,1.059-2.75,1.716.737.863.737.863a2.163,2.163,0,0,1-1.152.039.8.8,0,0,1-.56-.9c.01-.461.342-1.216,1.5-1.843a6.312,6.312,0,0,1,4.047-.6c1.463.245,1.629,1.1,1.318,2.186a5.038,5.038,0,0,1-3.445,2.736,4.432,4.432,0,0,1-.948.1A6.6,6.6,0,0,1-3979.6,1172.468Zm-.073-.027.073.027C-3979.676,1172.458-3979.677,1172.441-3979.677,1172.441Zm2.978-1.618c.1-.1-.7-.078-.5-.127s-.685-.059-.446-.186-.249-.1-.374-.1-.228-.147-.228-.147h-.187v-.225a.9.9,0,0,0,.187,0c.125-.01.457-.382.6-.382s.156.422.374.137.571,0,.571,0h.239v-.647h.166v.647h.156v-.774h.249v.774h.3v.245h-1.681v.118h1.857v.255h-1.442v.1s.177-.01.478,0,.664.216.239.422a3.137,3.137,0,0,1-1.058.225A4.9,4.9,0,0,0-3976.7,1170.823Zm-2.687-3.255a7.584,7.584,0,0,1,2.542-.892c.228-.039.166-.049.249-.353s.592-.323.592-.323a.8.8,0,0,0,.062.48c.114.147.312-.01,1.173.2a1.568,1.568,0,0,1,1.1,1,3.836,3.836,0,0,0-.965-.569,2.737,2.737,0,0,0-.861-.127c-.228.01,0,.4,0,.4l-1.349.186a1.132,1.132,0,0,0,.249-.343c.093-.206-1.027.078-2,.451a2.211,2.211,0,0,0-1.254,1A1.546,1.546,0,0,1-3979.386,1167.568Z" transform="translate(3999.999 -1132.943)" fill="#a2f6b6"/>
  </g>
</svg>
