<svg xmlns="http://www.w3.org/2000/svg" xmlns:xlink="http://www.w3.org/1999/xlink" width="7" height="7" viewBox="0 0 7 7">
  <defs>
    <clipPath id="clip-path">
      <rect id="矩形_908" data-name="矩形 908" width="7" height="7" transform="translate(20 33.027)" fill="#fff" opacity="0"/>
    </clipPath>
  </defs>
  <g id="白象塔院icon" transform="translate(-20 -33.027)" clip-path="url(#clip-path)">
    <g id="组_1880" data-name="组 1880" transform="matrix(0.966, -0.259, 0.259, 0.966, -136.854, 52.173)">
      <path id="减去_131" data-name="减去 131" d="M3.709,4.311h0L0,3.317.534,1.41.377,1.366l.036-.131A.056.056,0,0,1,.439,1.2a.056.056,0,0,1,.027-.007l.015,0L4.368,2.272a.056.056,0,0,1,.038.071l-.036.131L4.213,2.43l-.5,1.881ZM3.34,2.435a.288.288,0,0,0-.277.211l-.092.332.555.154L3.618,2.8a.288.288,0,0,0-.2-.354A.3.3,0,0,0,3.34,2.435ZM1.131,1.822a.288.288,0,0,0-.277.211l-.092.332.559.155.092-.332a.288.288,0,0,0-.2-.354A.289.289,0,0,0,1.131,1.822Zm3.189.242h0l-.463-.128.092-.33a.288.288,0,0,0-.277-.365.289.289,0,0,0-.277.211l-.091.33L1.648,1.323,1.739.994a.288.288,0,0,0-.2-.354h0a.288.288,0,0,0-.354.2l-.091.33L.64,1.044.864.216.707.167.744.041A.056.056,0,0,1,.8,0L.814,0,4.7,1.079a.057.057,0,0,1,.034.026.055.055,0,0,1,.005.043L4.7,1.28l-.157-.044-.224.827Z" transform="translate(156.591 25.57)" fill="#a2f6b6"/>
      <path id="减去_132" data-name="减去 132" d="M3.674,2.063h0l-.456-.126.089-.321a.29.29,0,0,0-.559-.155l-.089.321L0,1.044.224.216.067.172.1.041A.056.056,0,0,1,.157,0L.172,0,4.057,1.075a.056.056,0,0,1,.039.069l-.041.134L3.9,1.235l-.224.828ZM.821.629A.288.288,0,0,0,.543.845l-.09.324.554.153L1.1,1A.288.288,0,0,0,.9.64h0A.288.288,0,0,0,.821.629Z" transform="translate(157.564 24.369)" fill="#a2f6b6"/>
      <path id="减去_133" data-name="减去 133" d="M1.917,1.774l-.6-.165.14-.5A.373.373,0,0,0,1.2.646h0A.377.377,0,0,0,.736.909l-.138.5L0,1.243.29.2.208.173.244.041A.056.056,0,0,1,.3,0L.314,0,2.287.549a.056.056,0,0,1,.039.073L2.289.749,2.207.727l-.29,1.047Z" transform="translate(158.773 23.212)" fill="#a2f6b6"/>
    </g>
  </g>
</svg>
