<svg xmlns="http://www.w3.org/2000/svg" xmlns:xlink="http://www.w3.org/1999/xlink" width="7" height="7" viewBox="0 0 7 7">
  <defs>
    <clipPath id="clip-path">
      <rect id="矩形_900" data-name="矩形 900" width="7" height="7" transform="translate(20 33.027)" fill="#fff" opacity="0"/>
    </clipPath>
  </defs>
  <g id="蒲州新韵icon" transform="translate(-20 -33.027)" clip-path="url(#clip-path)">
    <path id="路径_1549" data-name="路径 1549" d="M27.431,74.457l-.035-.143a18.877,18.877,0,0,0-.9-2.346,24.513,24.513,0,0,1,.987-2.517c.235-.323.9-.844,1.487.924a42.041,42.041,0,0,1,1.128,4.082Zm1.08-4.353c-.239-.586-.452-.752-.679-.619s-.575,1.5-.575,1.5a.869.869,0,0,1,.389-.186c.182-.014.433.325.433.325s.144-.419.314-.4a1.329,1.329,0,0,1,.456.227S28.75,70.69,28.511,70.1Zm-1.425,4.353-2.932-.012s.627-1.582.817-2.118.554-1.373,1.05-.6a11.744,11.744,0,0,1,.948,2.257ZM25.9,72.211c-.129-.313-.243-.4-.365-.329s-.3.8-.3.8a.468.468,0,0,1,.208-.1c.1-.008.233.173.233.173s.076-.224.167-.216a.711.711,0,0,1,.245.12S26.028,72.525,25.9,72.211Z" transform="translate(-3.625 -35.28)" fill="#16e8e8"/>
  </g>
</svg>
