<svg xmlns="http://www.w3.org/2000/svg" xmlns:xlink="http://www.w3.org/1999/xlink" width="7" height="7" viewBox="0 0 7 7">
  <defs>
    <clipPath id="clip-path">
      <rect id="矩形_907" data-name="矩形 907" width="7" height="7" transform="translate(20 33.027)" fill="#fff" opacity="0"/>
    </clipPath>
  </defs>
  <g id="南湖月色icon" transform="translate(-20 -33.027)" clip-path="url(#clip-path)">
    <g id="组_1884" data-name="组 1884" transform="translate(20.238 33.257)">
      <path id="路径_1614" data-name="路径 1614" d="M448.931,255.951h-.54a.135.135,0,0,1,0-.271h.54a.135.135,0,0,1,0,.271Z" transform="translate(-445.42 -254.06)" fill="#a2f6b6"/>
      <path id="路径_1615" data-name="路径 1615" d="M6.18,37.447a3.242,3.242,0,0,1-3.032-4.382,3.24,3.24,0,1,0,4.174,4.177,3.228,3.228,0,0,1-1.142.2Z" transform="translate(-1.049 -32.855)" fill="#a2f6b6"/>
      <path id="路径_1616" data-name="路径 1616" d="M3.511,134.9a3.24,3.24,0,0,1-2.42-5.391,3.239,3.239,0,1,0,4.571,4.574A3.227,3.227,0,0,1,3.511,134.9Z" transform="translate(0 -128.69)" fill="#a2f6b6"/>
      <path id="路径_1617" data-name="路径 1617" d="M725.452,256.054a.135.135,0,1,1-.135-.135A.135.135,0,0,1,725.452,256.054Z" transform="translate(-720.591 -254.297)" fill="#a2f6b6"/>
      <path id="路径_1618" data-name="路径 1618" d="M618.979,469.12a.135.135,0,1,1-.135-.135A.135.135,0,0,1,618.979,469.12Z" transform="translate(-614.793 -466.013)" fill="#a2f6b6"/>
      <path id="路径_1619" data-name="路径 1619" d="M981.128,213.2a.135.135,0,1,1-.136-.135A.135.135,0,0,1,981.128,213.2Z" transform="translate(-974.647 -211.717)" fill="#a2f6b6"/>
      <path id="路径_1620" data-name="路径 1620" d="M597.613.135A.135.135,0,1,1,597.478,0a.136.136,0,0,1,.135.135Z" transform="translate(-593.562 0)" fill="#a2f6b6"/>
      <path id="路径_1621" data-name="路径 1621" d="M491.063,192.058a.135.135,0,0,0-.135.135V193a.135.135,0,1,0,.27,0v-.809A.135.135,0,0,0,491.063,192.058Z" transform="translate(-487.823 -190.841)" fill="#a2f6b6"/>
      <path id="路径_1622" data-name="路径 1622" d="M853.276,426.372a.135.135,0,0,0-.135.135v.81a.135.135,0,0,0,.27,0v-.81A.135.135,0,0,0,853.276,426.372Z" transform="translate(-847.74 -423.67)" fill="#a2f6b6"/>
      <path id="路径_1623" data-name="路径 1623" d="M812.669,490.562h-.54a.135.135,0,0,1,0-.27h.54a.135.135,0,1,1,0,.27Z" transform="translate(-806.864 -487.185)" fill="#a2f6b6"/>
    </g>
  </g>
</svg>
