<svg xmlns="http://www.w3.org/2000/svg" xmlns:xlink="http://www.w3.org/1999/xlink" width="7" height="7" viewBox="0 0 7 7">
  <defs>
    <clipPath id="clip-path">
      <rect id="矩形_902" data-name="矩形 902" width="7" height="7" transform="translate(20 33.027)" fill="#fff" opacity="0"/>
    </clipPath>
  </defs>
  <g id="镜湖古岸icon" transform="translate(-20 -33.027)" clip-path="url(#clip-path)">
    <g id="组_1886" data-name="组 1886" transform="translate(20.386 33.551)">
      <path id="减去_134" data-name="减去 134" d="M3.312,5.6a2.556,2.556,0,0,1-1.857-.681.984.984,0,0,1-.29-.731,1.27,1.27,0,0,1,.417-.715.938.938,0,0,0,.311-.922.882.882,0,0,0-.673-.482H1.182A1.5,1.5,0,0,1,.088,1.7.3.3,0,0,1,0,1.452c.044-.288.59-.608,1.3-.608h0c.7,0,1.183.3,1.184.576a.354.354,0,0,1-.1.253.826.826,0,0,0-.271.859.612.612,0,0,0,.354.327,2,2,0,0,0,.71.123c1.121.032,2.044.56,2.148,1.229a.9.9,0,0,1-.232.723,1.8,1.8,0,0,1-.74.491A3.016,3.016,0,0,1,3.312,5.6ZM4.719,3.746a.2.2,0,0,0-.157.326.39.39,0,0,1,.095.241c0,.337-.534.633-1.144.633a.2.2,0,1,0,0,.4c.866,0,1.545-.453,1.546-1.032a.793.793,0,0,0-.182-.494A.2.2,0,0,0,4.719,3.746Zm-.4-2.541h-.24V.917H3.837L4.179,0l.387.917H4.322v.288Z" transform="translate(0.639 0)" fill="#00ffd4"/>
      <path id="路径_1627" data-name="路径 1627" d="M6.116,166.54l-.532-1.261-.469,1.261h.335v.4h.33v-.4ZM1,168.312l-.531-1.26L0,168.312H.336v.4h.33v-.4H1Zm.416,1.607L.985,168.9.6,169.918H.877v.321h.268v-.321h.272Zm3.059-3.725-.353-.838-.313.838h.223v.264h.219v-.264h.223Z" transform="translate(0 -164.297)" fill="#00ffd4"/>
      <path id="路径_1628" data-name="路径 1628" d="M11.989,18.626c-.211-.345.6-.7.381-1.183a1.824,1.824,0,0,0-2.219-.579c-1.023.394-1.146.875-.542,1.319s1.43,0,1.6.592-.678.666-.764,1.541.813,1.5,1.713,1.639,2.749.037,3.02-1.183-.69-1.528-1.331-1.713S12.2,18.971,11.989,18.626Z" transform="translate(-8.932 -16.154)" fill="none"/>
    </g>
  </g>
</svg>
